<svg width="75" height="75" viewBox="0 0 75 75" fill="none" xmlns="http://www.w3.org/2000/svg">
<path d="M38.6229 13.2148C25.2333 13.2148 14.3398 24.1083 14.3398 37.4979C14.3398 50.8874 25.2333 61.7809 38.6229 61.7809C52.0124 61.7809 62.9059 50.8874 62.9059 37.4979C62.9059 24.1083 52.0124 13.2148 38.6229 13.2148ZM51.2605 29.3595L35.57 48.0388C35.3979 48.2438 35.1837 48.4094 34.942 48.5244C34.7003 48.6394 34.4367 48.7012 34.169 48.7054H34.1375C33.8757 48.7053 33.6168 48.6502 33.3777 48.5436C33.1386 48.437 32.9245 48.2813 32.7494 48.0867L26.0249 40.615C25.8541 40.4338 25.7213 40.2204 25.6341 39.9872C25.547 39.754 25.5074 39.5057 25.5176 39.257C25.5278 39.0082 25.5877 38.764 25.6936 38.5387C25.7995 38.3135 25.9494 38.1116 26.1345 37.9451C26.3195 37.7786 26.536 37.6507 26.7712 37.569C27.0063 37.4874 27.2554 37.4535 27.5039 37.4695C27.7523 37.4855 27.9951 37.5509 28.2178 37.6621C28.4406 37.7732 28.6389 37.9277 28.8011 38.1166L34.0885 43.9912L48.4003 26.9569C48.7213 26.5858 49.1755 26.3559 49.6647 26.3169C50.1539 26.2779 50.6387 26.433 51.0145 26.7486C51.3902 27.0643 51.6267 27.5151 51.6727 28.0036C51.7188 28.4922 51.5707 28.9793 51.2605 29.3595Z" fill="#4DAD94"/>
</svg>
